<svg width="48" height="48" viewBox="0 0 48 48" fill="none" xmlns="http://www.w3.org/2000/svg">
<g clip-path="url(#clip0_2311_461)">
<path fill-rule="evenodd" clip-rule="evenodd" d="M3.36182 41.6441C3.36182 41.9217 3.36762 42.3294 3.37918 42.4595C3.47027 43.4918 3.92133 44.4634 4.65868 45.2022C5.49 46.0335 6.6177 46.5005 7.79168 46.5005H43.8249C44.2746 46.5005 44.6389 46.1361 44.6389 45.6865V7.96168C44.6389 7.51349 44.2746 7.14914 43.8249 7.14914H15.1392C15.0784 5.67444 14.4669 4.27349 13.4187 3.2253C12.3141 2.12072 10.8163 1.50049 9.25338 1.50049C7.69049 1.50049 6.19265 2.12072 5.08663 3.2253C3.98205 4.32987 3.36182 5.82916 3.36182 7.39061C3.36182 17.2696 3.36182 38.3896 3.36182 41.6441ZM14.331 39.2643C14.7806 39.2643 15.1449 38.9 15.1449 38.4518V8.77564H43.0124C43.0124 13.739 43.0124 39.9091 43.0124 44.874H7.79168C7.04855 44.874 6.33578 44.5776 5.80952 44.0513C5.28325 43.5265 4.98832 42.8123 4.98832 42.0691C4.98832 41.3245 5.28325 40.6118 5.80952 40.0855C6.33578 39.5607 7.04855 39.2643 7.79168 39.2643H14.331ZM19.0153 29.8103V36.9525C19.0153 38.5284 20.2919 39.8036 21.8664 39.8036H36.3893C37.9637 39.8036 39.2403 38.5284 39.2403 36.9525V29.8103L39.3705 29.9477C39.8331 30.4335 40.5459 30.5896 41.1705 30.3395C41.7951 30.0908 42.2027 29.4865 42.2027 28.8142V27.2181C42.2027 26.6961 42.0032 26.1944 41.6432 25.8171C40.1165 24.2123 33.7912 17.5646 31.0225 14.6571C30.5295 14.1381 29.8442 13.8446 29.1285 13.8446C28.4114 13.8446 27.7262 14.1381 27.2331 14.6571C24.4645 17.5646 18.1391 24.2123 16.6124 25.8171C16.2524 26.1944 16.0529 26.6961 16.0529 27.2181V28.8142C16.0529 29.4865 16.462 30.0908 17.0852 30.3395C17.7098 30.5896 18.4225 30.4335 18.8852 29.9477L19.0153 29.8103ZM13.5184 37.6378V7.39061C13.5184 6.26 13.0688 5.17565 12.2693 4.37469C11.4698 3.57517 10.384 3.12699 9.25338 3.12699C8.12133 3.12699 7.03698 3.57517 6.23746 4.37469C5.43794 5.17565 4.98832 6.26 4.98832 7.39061V38.6383C5.77627 37.9949 6.76517 37.6378 7.79168 37.6378H13.5184ZM37.6138 28.1014L29.8442 19.9371C29.6577 19.7419 29.3989 19.6306 29.1285 19.6306C28.8567 19.6306 28.598 19.7419 28.4114 19.9371L20.6418 28.1014V36.9525C20.6418 37.6291 21.1898 38.1771 21.8664 38.1771H25.1512V31.3284C25.1512 30.273 25.569 29.2624 26.3151 28.5164C27.0611 27.7703 28.0731 27.3511 29.1271 27.3511H29.1285C30.1825 27.3511 31.1946 27.7703 31.9406 28.5164C32.6866 29.2624 33.1059 30.273 33.1059 31.3284V38.1771H36.3893C37.0659 38.1771 37.6138 37.6291 37.6138 36.9525V28.1014ZM31.4794 38.1771V31.3284C31.4794 30.7053 31.2307 30.1067 30.7898 29.6658C30.3488 29.2248 29.7517 28.9776 29.1285 28.9776H29.1271C28.504 28.9776 27.9069 29.2248 27.4659 29.6658C27.0249 30.1067 26.7777 30.7053 26.7777 31.3284V38.1771H31.4794ZM17.6794 27.2181C17.6794 27.114 17.7184 27.0128 17.7907 26.9376L28.4114 15.779C28.598 15.5824 28.8567 15.4711 29.1285 15.4711C29.3989 15.4711 29.6577 15.5824 29.8442 15.779L40.465 26.9376C40.5372 27.0128 40.5762 27.114 40.5762 27.2181V28.8142C40.5762 28.8214 40.5734 28.8272 40.5661 28.8301C40.5604 28.8316 40.5531 28.8301 40.5488 28.8258L31.0225 18.8166C30.5295 18.2976 29.8442 18.0041 29.1285 18.0041C28.4114 18.0041 27.7262 18.2976 27.2331 18.8166L17.7069 28.8258C17.7025 28.8301 17.6953 28.8316 17.6895 28.8301C17.6838 28.8272 17.6794 28.8214 17.6794 28.8142V27.2181Z" fill="#F05A28" stroke="#F05A28" stroke-width="0.6"/>
</g>
<defs>
<clipPath id="clip0_2311_461">
<rect width="48" height="48" fill="white"/>
</clipPath>
</defs>
</svg>
