<svg width="48" height="48" viewBox="0 0 48 48" fill="none" xmlns="http://www.w3.org/2000/svg">
<path fill-rule="evenodd" clip-rule="evenodd" d="M3 46.5C3 46.1022 3.15804 45.7206 3.43934 45.4393C3.72064 45.158 4.10218 45 4.5 45H43.5C43.8978 45 44.2794 45.158 44.5607 45.4393C44.842 45.7206 45 46.1022 45 46.5C45 46.8978 44.842 47.2794 44.5607 47.5607C44.2794 47.842 43.8978 48 43.5 48H4.5C4.10218 48 3.72064 47.842 3.43934 47.5607C3.15804 47.2794 3 46.8978 3 46.5ZM34.5 6H33V3H34.5C35.6935 3 36.8381 3.47411 37.682 4.31802C38.5259 5.16193 39 6.30653 39 7.5V45H36V7.5C36 7.10218 35.842 6.72064 35.5607 6.43934C35.2794 6.15804 34.8978 6 34.5 6Z" fill="#F05A28"/>
<path fill-rule="evenodd" clip-rule="evenodd" d="M32.484 0.366066C32.6462 0.507076 32.7763 0.681308 32.8653 0.87696C32.9543 1.07261 33.0003 1.28511 33 1.50007V45.0001H30V3.23107L12 5.80207V45.0001H9V4.50007C9.00005 4.13866 9.13059 3.78943 9.3676 3.51659C9.60461 3.24376 9.93216 3.06566 10.29 3.01507L31.29 0.0150664C31.5025 -0.0152877 31.7191 0.000340316 31.9251 0.0608943C32.1311 0.121448 32.3217 0.225517 32.484 0.366066Z" fill="#F05A28"/>
<path d="M24 27C24 28.656 24.672 30 25.5 30C26.328 30 27 28.656 27 27C27 25.344 26.328 24 25.5 24C24.672 24 24 25.344 24 27Z" fill="#F05A28"/>
</svg>
