<svg width="48" height="48" viewBox="0 0 48 48" fill="none" xmlns="http://www.w3.org/2000/svg">
<path d="M44.9999 22.4999C44.6872 22.4979 44.3831 22.3983 44.1299 22.2149L23.9999 7.84491L3.86985 22.2149C3.54691 22.4062 3.16399 22.4694 2.79669 22.3922C2.42939 22.3149 2.10441 22.1027 1.88589 21.7976C1.66737 21.4924 1.57121 21.1164 1.61637 20.7438C1.66154 20.3712 1.84476 20.029 2.12985 19.7849L23.1299 4.78491C23.3839 4.60404 23.688 4.50684 23.9999 4.50684C24.3117 4.50684 24.6158 4.60404 24.8699 4.78491L45.8699 19.7849C46.126 19.9703 46.3169 20.2319 46.4155 20.5323C46.5141 20.8327 46.5152 21.1566 46.4187 21.4577C46.3222 21.7588 46.1331 22.0217 45.8783 22.2088C45.6235 22.396 45.316 22.4979 44.9999 22.4999Z" fill="#F05A28"/>
<path d="M7.5 13.5C7.10218 13.5 6.72064 13.342 6.43934 13.0607C6.15804 12.7794 6 12.3978 6 12V6C6 5.60218 6.15804 5.22064 6.43934 4.93934C6.72064 4.65804 7.10218 4.5 7.5 4.5H13.5C13.8978 4.5 14.2794 4.65804 14.5607 4.93934C14.842 5.22064 15 5.60218 15 6C15 6.39782 14.842 6.77936 14.5607 7.06066C14.2794 7.34196 13.8978 7.5 13.5 7.5H9V12C9 12.3978 8.84196 12.7794 8.56066 13.0607C8.27936 13.342 7.89782 13.5 7.5 13.5Z" fill="#F05A28"/>
<path d="M37.5 43.5H30C29.6022 43.5 29.2206 43.342 28.9393 43.0607C28.658 42.7794 28.5 42.3978 28.5 42V31.5H19.5V42C19.5 42.3978 19.342 42.7794 19.0607 43.0607C18.7794 43.342 18.3978 43.5 18 43.5H10.5C9.30653 43.5 8.16193 43.0259 7.31802 42.182C6.47411 41.3381 6 40.1935 6 39V24C6 23.6022 6.15804 23.2206 6.43934 22.9393C6.72064 22.658 7.10218 22.5 7.5 22.5C7.89782 22.5 8.27936 22.658 8.56066 22.9393C8.84196 23.2206 9 23.6022 9 24V39C9 39.3978 9.15804 39.7794 9.43934 40.0607C9.72064 40.342 10.1022 40.5 10.5 40.5H16.5V30C16.5 29.6022 16.658 29.2206 16.9393 28.9393C17.2206 28.658 17.6022 28.5 18 28.5H30C30.3978 28.5 30.7794 28.658 31.0607 28.9393C31.342 29.2206 31.5 29.6022 31.5 30V40.5H37.5C37.8978 40.5 38.2794 40.342 38.5607 40.0607C38.842 39.7794 39 39.3978 39 39V24C39 23.6022 39.158 23.2206 39.4393 22.9393C39.7206 22.658 40.1022 22.5 40.5 22.5C40.8978 22.5 41.2794 22.658 41.5607 22.9393C41.842 23.2206 42 23.6022 42 24V39C42 40.1935 41.5259 41.3381 40.682 42.182C39.8381 43.0259 38.6935 43.5 37.5 43.5Z" fill="#F05A28"/>
</svg>
