<svg width="40" height="40" viewBox="0 0 40 40" fill="none" xmlns="http://www.w3.org/2000/svg">
<path d="M4.80697 18.3606C4.80697 18.3606 18.4441 12.781 23.1736 10.8165C24.9866 10.0306 31.1351 7.51583 31.1351 7.51583C31.1351 7.51583 33.9728 6.41583 33.7364 9.0875C33.6574 10.1877 33.0268 14.0383 32.3961 18.2033C31.4503 24.0973 30.4255 30.541 30.4255 30.541C30.4255 30.541 30.268 32.3485 28.928 32.6629C27.5878 32.9773 25.3807 31.5627 24.9866 31.2483C24.6713 31.0125 19.0747 27.4762 17.0253 25.7475C16.4734 25.276 15.8428 24.3329 17.1041 23.2327C19.9418 20.6396 23.3313 17.4175 25.3807 15.3744C26.3266 14.4312 27.2726 12.2308 23.3313 14.9027C17.7347 18.7533 12.2168 22.3683 12.2168 22.3683C12.2168 22.3683 10.9557 23.1542 8.59093 22.4469C6.22614 21.7396 3.46718 20.7967 3.46718 20.7967C3.46718 20.7967 1.57552 19.6177 4.80739 18.3606H4.80697Z" stroke="#F3F1EF" stroke-width="2.5"/>
</svg>
