<svg width="40" height="40" viewBox="0 0 40 40" fill="none" xmlns="http://www.w3.org/2000/svg">
<path fill-rule="evenodd" clip-rule="evenodd" d="M19.9997 6.66683C12.6359 6.66683 6.66634 12.6364 6.66634 20.0002C6.66634 22.4732 7.3381 24.7845 8.50819 26.7668L9.45622 27.9632L8.29504 31.8945L12.1628 30.8144L12.7922 31.2197C14.8695 32.5573 17.3414 33.3335 19.9997 33.3335C27.3635 33.3335 33.333 27.364 33.333 20.0002C33.333 12.6364 27.3635 6.66683 19.9997 6.66683ZM3.33301 20.0002C3.33301 10.7954 10.7949 3.3335 19.9997 3.3335C29.2044 3.3335 36.6663 10.7954 36.6663 20.0002C36.6663 29.2049 29.2044 36.6668 19.9997 36.6668C16.9556 36.6668 14.0982 35.8493 11.6397 34.4214L3.39277 36.7244L5.76948 28.6777L5.75991 28.6657L5.70447 28.5734C4.19856 26.0673 3.33301 23.1322 3.33301 20.0002Z" fill="#F3F1EF"/>
<path d="M27.892 22.4873C27.8271 22.4561 25.397 21.2594 24.9652 21.104C24.7889 21.0407 24.6 20.9789 24.3992 20.9789C24.071 20.9789 23.7954 21.1425 23.5807 21.4637C23.3379 21.8245 22.6031 22.6835 22.376 22.9401C22.3464 22.974 22.3059 23.0144 22.2817 23.0144C22.2599 23.0144 21.8838 22.8596 21.77 22.8101C19.1631 21.6777 17.1845 18.9547 16.9131 18.4955C16.8744 18.4295 16.8728 18.3995 16.8725 18.3995C16.882 18.3645 16.9696 18.2767 17.0149 18.2313C17.1472 18.1004 17.2906 17.9277 17.4294 17.7607C17.4951 17.6816 17.5609 17.6024 17.6255 17.5277C17.8268 17.2935 17.9164 17.1117 18.0203 16.9011L18.0747 16.7917C18.3284 16.2877 18.1117 15.8624 18.0417 15.725C17.9842 15.6101 16.9582 13.1337 16.8491 12.8735C16.5867 12.2457 16.2401 11.9534 15.7584 11.9534C15.7137 11.9534 15.7584 11.9534 15.5709 11.9613C15.3427 11.9709 14.0997 12.1346 13.5502 12.481C12.9674 12.8484 11.9814 14.0196 11.9814 16.0794C11.9814 17.9332 13.1578 19.6835 13.6629 20.3492C13.6755 20.3659 13.6985 20.4 13.732 20.449C15.6663 23.2738 18.0776 25.3673 20.5221 26.3439C22.8755 27.2839 23.9899 27.3926 24.6234 27.3926C24.8897 27.3926 25.1029 27.3717 25.2909 27.3532L25.4101 27.3418C26.2231 27.2697 28.0097 26.344 28.4161 25.2146C28.7362 24.3251 28.8206 23.3533 28.6076 23.0006C28.4617 22.7607 28.2103 22.6401 27.892 22.4873Z" fill="#F3F1EF"/>
</svg>
