<svg width="40" height="40" viewBox="0 0 40 40" fill="none" xmlns="http://www.w3.org/2000/svg">
<path d="M36.6668 15V10.3334C36.6668 9.2288 35.7714 8.33337 34.6668 8.33337H5.33349C4.22892 8.33337 3.3335 9.2288 3.3335 10.3334V29.6667C3.3335 30.7713 4.22893 31.6667 5.3335 31.6667H20.0002M36.6668 15H10.0002M36.6668 15V18.3334" stroke="#F05A28" stroke-width="3" stroke-linecap="round" stroke-linejoin="round"/>
<path d="M31.3256 23.4584L36.2144 24.7C36.4804 24.7675 36.6674 25.0133 36.6625 25.2878C36.4871 35.1618 30.8333 36.6667 30.8333 36.6667C30.8333 36.6667 25.1795 35.1618 25.0042 25.2878C24.9993 25.0133 25.1863 24.7675 25.4523 24.7L30.341 23.4584C30.6641 23.3764 31.0026 23.3764 31.3256 23.4584Z" stroke="#F05A28" stroke-width="3" stroke-linecap="round" stroke-linejoin="round"/>
</svg>
