<svg width="40" height="40" viewBox="0 0 40 40" fill="none" xmlns="http://www.w3.org/2000/svg">
<path d="M20.0002 36.6666C29.2049 36.6666 36.6668 29.2047 36.6668 20C36.6668 10.7952 29.2049 3.33331 20.0002 3.33331C10.7954 3.33331 3.3335 10.7952 3.3335 20C3.3335 29.2047 10.7954 36.6666 20.0002 36.6666Z" stroke="#F05A28" stroke-width="3" stroke-linecap="round" stroke-linejoin="round"/>
<path d="M25 14.1667C23.8584 13.025 21.8478 12.2309 20 12.1812M15 25C16.0741 26.4322 18.0713 27.249 20 27.3183M20 12.1812C17.8015 12.1221 15.8333 13.1167 15.8333 15.8334C15.8333 20.8334 25 18.3334 25 23.3334C25 26.1851 22.5603 27.4103 20 27.3183M20 12.1812V9.16669M20 27.3183V30.8334" stroke="#F05A28" stroke-width="3" stroke-linecap="round" stroke-linejoin="round"/>
</svg>
