<svg width="40" height="40" viewBox="0 0 40 40" fill="none" xmlns="http://www.w3.org/2000/svg">
<path d="M6.6665 36.0667V3.93337C6.6665 3.602 6.93513 3.33337 7.26651 3.33337H27.2513C27.4104 3.33337 27.563 3.39659 27.6756 3.50911L33.1574 8.99097C33.27 9.10349 33.3332 9.2561 33.3332 9.41524V36.0667C33.3332 36.3981 33.0645 36.6667 32.7332 36.6667H7.2665C6.93513 36.6667 6.6665 36.3981 6.6665 36.0667Z" stroke="#F05A28" stroke-width="3" stroke-linecap="round" stroke-linejoin="round"/>
<path d="M13.3335 16.6666L26.6668 16.6666" stroke="#F05A28" stroke-width="3" stroke-linecap="round" stroke-linejoin="round"/>
<path d="M13.3335 30L26.6668 30" stroke="#F05A28" stroke-width="3" stroke-linecap="round" stroke-linejoin="round"/>
<path d="M13.3335 23.3334L20.0002 23.3334" stroke="#F05A28" stroke-width="3" stroke-linecap="round" stroke-linejoin="round"/>
<path d="M26.6665 3.33337V9.40004C26.6665 9.73141 26.9351 10 27.2665 10H33.3332" stroke="#F05A28" stroke-width="3" stroke-linecap="round" stroke-linejoin="round"/>
</svg>
