<svg xmlns="http://www.w3.org/2000/svg" version="1.1" xmlns:xlink="http://www.w3.org/1999/xlink" width="1000" height="1000"><g clip-path="url(#SvgjsClipPath1081)"><rect width="1000" height="1000" fill="#ffffff"></rect><g transform="matrix(4.830917874396135,0,0,4.830917874396135,0,2.415458937198082)"><svg xmlns="http://www.w3.org/2000/svg" version="1.1" xmlns:xlink="http://www.w3.org/1999/xlink" width="207" height="206"><svg width="207" height="206" viewBox="0 0 207 206" fill="none" xmlns="http://www.w3.org/2000/svg">
<path d="M144.126 124.925V53.9248L179.626 74.9248V147.925L144.126 124.925Z" fill="#4A4A4A" stroke="#4A4A4A"></path>
<path d="M151.626 192.925V156.425L178.626 166.425V199.425L151.626 192.925Z" fill="#4A4A4A" stroke="#202020"></path>
<path d="M131.626 0.924805L130.626 117.925L87.626 90.4248V29.4248L131.626 0.924805Z" fill="#F05A28" stroke="#F05A28"></path>
<path d="M73.626 97.4248V44.4248L41.626 65.4248V116.925L73.626 97.4248Z" fill="#202020"></path>
<path d="M144.126 124.925V53.9248L153.126 59.4248L152.126 129.925L144.126 124.925Z" fill="#202020"></path>
<path d="M73.626 97.4248V44.4248L41.626 65.4248V116.925L73.626 97.4248Z" stroke="#202020"></path>
<path d="M144.126 124.925V53.9248L153.126 59.4248L152.126 129.925L144.126 124.925Z" stroke="#202020"></path>
<path d="M78.626 199.925V158.925H98.626V199.925H78.626Z" fill="#202020" stroke="#202020"></path>
<path d="M0.125977 205.425L58.126 201.925V144.425L87.626 126.425L119.126 145.925V201.925L206.626 205.425L151.126 192.925V155.425L195.626 172.425L87.626 106.425L18.126 145.925V160.425L34.626 155.425V196.425L0.125977 205.425Z" fill="#202020" stroke="#202020"></path>
</svg></svg></g></g><defs><clipPath id="SvgjsClipPath1081"><rect width="1000" height="1000" x="0" y="0" rx="200" ry="200"></rect></clipPath></defs></svg>