<svg width="878" height="206" viewBox="0 0 878 206" fill="none" xmlns="http://www.w3.org/2000/svg">
<path d="M144.126 124.925V53.9248L179.626 74.9248V147.925L144.126 124.925Z" fill="#4A4A4A" stroke="#4A4A4A"/>
<path d="M151.626 192.925V156.425L178.626 166.425V199.425L151.626 192.925Z" fill="#4A4A4A" stroke="#202020"/>
<path d="M131.626 0.924805L130.626 117.925L87.626 90.4248V29.4248L131.626 0.924805Z" fill="#F05A28" stroke="#F05A28"/>
<path d="M73.626 97.4248V44.4248L41.626 65.4248V116.925L73.626 97.4248Z" fill="#202020"/>
<path d="M144.126 124.925V53.9248L153.126 59.4248L152.126 129.925L144.126 124.925Z" fill="#202020"/>
<path d="M73.626 97.4248V44.4248L41.626 65.4248V116.925L73.626 97.4248Z" stroke="#202020"/>
<path d="M144.126 124.925V53.9248L153.126 59.4248L152.126 129.925L144.126 124.925Z" stroke="#202020"/>
<path d="M78.626 199.925V158.925H98.626V199.925H78.626Z" fill="#202020" stroke="#202020"/>
<path d="M0.125977 205.425L58.126 201.925V144.425L87.626 126.425L119.126 145.925V201.925L206.626 205.425L151.126 192.925V155.425L195.626 172.425L87.626 106.425L18.126 145.925V160.425L34.626 155.425V196.425L0.125977 205.425Z" fill="#202020" stroke="#202020"/>
<path d="M253.672 73.9248H264.85V108.161L260.854 104.489H271.87V122.579H261.34V112.319L264.418 114.425H222.406V73.9248H233.584V108.161L229.966 104.489H257.614L253.672 108.161V73.9248ZM282.165 90.1248H311.811V98.2248H282.165V90.1248ZM287.133 77.9208V110.429L282.597 105.353H313.593V114.425H275.955V73.9248H313.323V82.9968H282.597L287.133 77.9208ZM320.07 114.425V73.9248H331.248V114.425H320.07ZM351.93 114.425V73.9248H363.162V114.425H351.93ZM326.334 98.8188V88.8828H356.574V98.8188H326.334ZM383.438 114.425V78.8388H394.67V114.425H383.438ZM367.994 83.8608V73.9248H410.114V83.8608H367.994ZM414.939 73.9248H437.673C440.229 73.9248 442.515 74.2668 444.531 74.9508C446.547 75.5988 448.257 76.5348 449.661 77.7588C451.065 78.9828 452.145 80.4588 452.901 82.1868C453.657 83.8788 454.035 85.7868 454.035 87.9108C454.035 89.9988 453.657 91.9068 452.901 93.6348C452.145 95.3268 451.065 96.7848 449.661 98.0088C448.257 99.2328 446.547 100.187 444.531 100.871C442.515 101.519 440.229 101.843 437.673 101.843H420.123V92.8788H436.971C438.771 92.8788 440.175 92.4468 441.183 91.5828C442.191 90.6828 442.695 89.4588 442.695 87.9108C442.695 86.3268 442.191 85.1028 441.183 84.2388C440.175 83.3388 438.771 82.8888 436.971 82.8888H421.095L426.117 77.7048V114.425H414.939V73.9248ZM506.064 97.4688H517.296C517.008 100.133 516.234 102.563 514.974 104.759C513.714 106.955 512.076 108.845 510.06 110.429C508.08 111.977 505.722 113.183 502.986 114.047C500.286 114.875 497.316 115.289 494.076 115.289C490.548 115.289 487.326 114.785 484.41 113.777C481.53 112.769 479.064 111.347 477.012 109.511C474.96 107.639 473.358 105.407 472.206 102.815C471.09 100.223 470.532 97.3428 470.532 94.1748C470.532 91.0068 471.09 88.1268 472.206 85.5348C473.358 82.9428 474.96 80.7288 477.012 78.8928C479.064 77.0208 481.53 75.5808 484.41 74.5728C487.326 73.5648 490.548 73.0608 494.076 73.0608C497.316 73.0608 500.286 73.4928 502.986 74.3568C505.722 75.1848 508.08 76.3908 510.06 77.9748C512.076 79.5228 513.714 81.3948 514.974 83.5908C516.234 85.7868 517.008 88.2168 517.296 90.8808H506.064C505.776 89.5848 505.308 88.4328 504.66 87.4248C504.012 86.4168 503.166 85.5708 502.122 84.8868C501.114 84.2028 499.926 83.6808 498.558 83.3208C497.226 82.9248 495.732 82.7268 494.076 82.7268C492.168 82.7268 490.458 82.9968 488.946 83.5368C487.47 84.0768 486.192 84.8328 485.112 85.8048C484.068 86.7768 483.258 87.9828 482.682 89.4228C482.142 90.8268 481.872 92.4108 481.872 94.1748C481.872 95.9388 482.142 97.5408 482.682 98.9808C483.258 100.385 484.068 101.591 485.112 102.599C486.192 103.571 487.47 104.327 488.946 104.867C490.458 105.371 492.168 105.623 494.076 105.623C495.732 105.623 497.226 105.461 498.558 105.137C499.926 104.777 501.114 104.255 502.122 103.571C503.166 102.851 504.012 101.987 504.66 100.979C505.308 99.9708 505.776 98.8008 506.064 97.4688ZM536.93 114.425H522.728V73.9248H533.744V108.539L530.666 107.837L553.616 73.9248H568.25V114.425H557.18V79.1628L560.312 79.8648L536.93 114.425ZM582.582 73.9248H622.326V114.425H611.094V78.7848L616.17 83.8608H588.846L593.544 80.1348C593.832 82.5468 594.03 84.8328 594.138 86.9928C594.246 89.1528 594.3 91.2048 594.3 93.1488C594.3 97.0368 594.03 100.385 593.49 103.193C592.95 105.965 592.122 108.251 591.006 110.051C589.926 111.815 588.522 113.129 586.794 113.993C585.102 114.821 583.05 115.235 580.638 115.235C579.198 115.235 577.812 115.091 576.48 114.803C575.148 114.515 573.924 114.083 572.808 113.507V104.219C573.564 104.507 574.302 104.741 575.022 104.921C575.778 105.065 576.498 105.137 577.182 105.137C579.522 105.137 581.196 104.075 582.204 101.951C583.248 99.8268 583.77 96.3528 583.77 91.5288C583.77 89.1888 583.662 86.5608 583.446 83.6448C583.266 80.7288 582.978 77.4888 582.582 73.9248ZM652.08 115.289C648.48 115.289 645.204 114.785 642.252 113.777C639.3 112.769 636.762 111.347 634.638 109.511C632.55 107.639 630.93 105.407 629.778 102.815C628.626 100.223 628.05 97.3428 628.05 94.1748C628.05 91.0068 628.626 88.1268 629.778 85.5348C630.93 82.9428 632.55 80.7288 634.638 78.8928C636.762 77.0208 639.3 75.5808 642.252 74.5728C645.204 73.5648 648.48 73.0608 652.08 73.0608C655.68 73.0608 658.956 73.5648 661.908 74.5728C664.896 75.5808 667.434 77.0208 669.522 78.8928C671.646 80.7288 673.284 82.9428 674.436 85.5348C675.588 88.1268 676.164 91.0068 676.164 94.1748C676.164 97.3428 675.588 100.223 674.436 102.815C673.284 105.407 671.646 107.639 669.522 109.511C667.434 111.347 664.914 112.769 661.962 113.777C659.01 114.785 655.716 115.289 652.08 115.289ZM652.08 105.299C654.06 105.299 655.824 105.047 657.372 104.543C658.956 104.039 660.306 103.301 661.422 102.329C662.538 101.357 663.384 100.187 663.96 98.8188C664.536 97.4148 664.824 95.8668 664.824 94.1748C664.824 92.4468 664.518 90.8988 663.906 89.5308C663.33 88.1268 662.484 86.9568 661.368 86.0208C660.288 85.0488 658.956 84.3108 657.372 83.8068C655.824 83.3028 654.06 83.0508 652.08 83.0508C650.136 83.0508 648.372 83.3028 646.788 83.8068C645.24 84.3108 643.908 85.0488 642.792 86.0208C641.676 86.9568 640.812 88.1268 640.2 89.5308C639.624 90.8988 639.336 92.4468 639.336 94.1748C639.336 95.8668 639.624 97.4148 640.2 98.8188C640.812 100.187 641.676 101.357 642.792 102.329C643.908 103.301 645.24 104.039 646.788 104.543C648.372 105.047 650.136 105.299 652.08 105.299ZM708.891 94.6068L709.809 92.5008C712.149 92.5368 714.183 92.8248 715.911 93.3648C717.639 93.9048 719.079 94.6428 720.231 95.5788C721.383 96.4788 722.229 97.5588 722.769 98.8188C723.345 100.079 723.633 101.483 723.633 103.031C723.633 104.687 723.345 106.217 722.769 107.621C722.193 108.989 721.329 110.177 720.177 111.185C719.061 112.193 717.657 112.985 715.965 113.561C714.309 114.137 712.365 114.425 710.133 114.425H680.217V73.9248H709.053C712.833 73.9248 715.749 74.8068 717.801 76.5708C719.889 78.2988 720.933 80.7108 720.933 83.8068C720.933 85.0668 720.717 86.3088 720.285 87.5328C719.853 88.7568 719.151 89.8548 718.179 90.8268C717.243 91.7988 716.001 92.6268 714.453 93.3108C712.941 93.9588 711.087 94.3908 708.891 94.6068ZM691.287 76.5168V111.833L686.967 106.595H707.109C708.729 106.595 709.989 106.217 710.889 105.461C711.789 104.669 712.239 103.553 712.239 102.113C712.239 100.709 711.753 99.5928 710.781 98.7648C709.809 97.9008 708.369 97.4688 706.461 97.4688H689.829V89.8008H704.949C705.597 89.8008 706.191 89.7108 706.731 89.5308C707.307 89.3148 707.811 89.0268 708.243 88.6668C708.675 88.2708 708.999 87.8028 709.215 87.2628C709.431 86.7228 709.539 86.1288 709.539 85.4808C709.539 84.4008 709.161 83.5188 708.405 82.8348C707.649 82.1148 706.569 81.7548 705.165 81.7548H687.021L691.287 76.5168ZM751.379 115.289C747.779 115.289 744.503 114.785 741.551 113.777C738.599 112.769 736.061 111.347 733.937 109.511C731.849 107.639 730.229 105.407 729.077 102.815C727.925 100.223 727.349 97.3428 727.349 94.1748C727.349 91.0068 727.925 88.1268 729.077 85.5348C730.229 82.9428 731.849 80.7288 733.937 78.8928C736.061 77.0208 738.599 75.5808 741.551 74.5728C744.503 73.5648 747.779 73.0608 751.379 73.0608C754.979 73.0608 758.255 73.5648 761.207 74.5728C764.195 75.5808 766.733 77.0208 768.821 78.8928C770.945 80.7288 772.583 82.9428 773.735 85.5348C774.887 88.1268 775.463 91.0068 775.463 94.1748C775.463 97.3428 774.887 100.223 773.735 102.815C772.583 105.407 770.945 107.639 768.821 109.511C766.733 111.347 764.213 112.769 761.261 113.777C758.309 114.785 755.015 115.289 751.379 115.289ZM751.379 105.299C753.359 105.299 755.123 105.047 756.671 104.543C758.255 104.039 759.605 103.301 760.721 102.329C761.837 101.357 762.683 100.187 763.259 98.8188C763.835 97.4148 764.123 95.8668 764.123 94.1748C764.123 92.4468 763.817 90.8988 763.205 89.5308C762.629 88.1268 761.783 86.9568 760.667 86.0208C759.587 85.0488 758.255 84.3108 756.671 83.8068C755.123 83.3028 753.359 83.0508 751.379 83.0508C749.435 83.0508 747.671 83.3028 746.087 83.8068C744.539 84.3108 743.207 85.0488 742.091 86.0208C740.975 86.9568 740.111 88.1268 739.499 89.5308C738.923 90.8988 738.635 92.4468 738.635 94.1748C738.635 95.8668 738.923 97.4148 739.499 98.8188C740.111 100.187 740.975 101.357 742.091 102.329C743.207 103.301 744.539 104.039 746.087 104.543C747.671 105.047 749.435 105.299 751.379 105.299ZM781.232 73.9248H812.012V83.9148H787.388L792.41 78.8388V114.425H781.232V73.9248ZM837.388 115.289C833.788 115.289 830.512 114.785 827.56 113.777C824.608 112.769 822.07 111.347 819.946 109.511C817.858 107.639 816.238 105.407 815.086 102.815C813.934 100.223 813.358 97.3428 813.358 94.1748C813.358 91.0068 813.934 88.1268 815.086 85.5348C816.238 82.9428 817.858 80.7288 819.946 78.8928C822.07 77.0208 824.608 75.5808 827.56 74.5728C830.512 73.5648 833.788 73.0608 837.388 73.0608C840.988 73.0608 844.264 73.5648 847.216 74.5728C850.204 75.5808 852.742 77.0208 854.83 78.8928C856.954 80.7288 858.592 82.9428 859.744 85.5348C860.896 88.1268 861.472 91.0068 861.472 94.1748C861.472 97.3428 860.896 100.223 859.744 102.815C858.592 105.407 856.954 107.639 854.83 109.511C852.742 111.347 850.222 112.769 847.27 113.777C844.318 114.785 841.024 115.289 837.388 115.289ZM837.388 105.299C839.368 105.299 841.132 105.047 842.68 104.543C844.264 104.039 845.614 103.301 846.73 102.329C847.846 101.357 848.692 100.187 849.268 98.8188C849.844 97.4148 850.132 95.8668 850.132 94.1748C850.132 92.4468 849.826 90.8988 849.214 89.5308C848.638 88.1268 847.792 86.9568 846.676 86.0208C845.596 85.0488 844.264 84.3108 842.68 83.8068C841.132 83.3028 839.368 83.0508 837.388 83.0508C835.444 83.0508 833.68 83.3028 832.096 83.8068C830.548 84.3108 829.216 85.0488 828.1 86.0208C826.984 86.9568 826.12 88.1268 825.508 89.5308C824.932 90.8988 824.644 92.4468 824.644 94.1748C824.644 95.8668 824.932 97.4148 825.508 98.8188C826.12 100.187 826.984 101.357 828.1 102.329C829.216 103.301 830.548 104.039 832.096 104.543C833.68 105.047 835.444 105.299 837.388 105.299ZM222.406 178.425V137.925H233.53V178.425H222.406ZM238.66 157.743L255.13 137.925H267.496L251.026 157.095L268.036 178.425H254.806L238.66 157.743ZM228.67 152.883H249.46V162.819H228.67V152.883ZM305.194 170.649H277.276V161.631H305.194V170.649ZM284.08 137.925H298.822L317.236 178.425H305.302L289.858 142.677H293.098L277.6 178.425H265.666L284.08 137.925ZM321.072 137.925H343.806C346.362 137.925 348.648 138.267 350.664 138.951C352.68 139.599 354.39 140.535 355.794 141.759C357.198 142.983 358.278 144.459 359.034 146.187C359.79 147.879 360.168 149.787 360.168 151.911C360.168 153.999 359.79 155.907 359.034 157.635C358.278 159.327 357.198 160.785 355.794 162.009C354.39 163.233 352.68 164.187 350.664 164.871C348.648 165.519 346.362 165.843 343.806 165.843H326.256V156.879H343.104C344.904 156.879 346.308 156.447 347.316 155.583C348.324 154.683 348.828 153.459 348.828 151.911C348.828 150.327 348.324 149.103 347.316 148.239C346.308 147.339 344.904 146.889 343.104 146.889H327.228L332.25 141.705V178.425H321.072V137.925ZM365.052 178.425V137.925H376.176V178.425H365.052ZM381.306 157.743L397.776 137.925H410.142L393.672 157.095L410.682 178.425H397.452L381.306 157.743ZM371.316 152.883H392.106V162.819H371.316V152.883ZM447.841 170.649H419.923V161.631H447.841V170.649ZM426.727 137.925H441.469L459.883 178.425H447.949L432.505 142.677H435.745L420.247 178.425H408.313L426.727 137.925ZM495.043 161.469H506.275C505.987 164.133 505.213 166.563 503.953 168.759C502.693 170.955 501.055 172.845 499.039 174.429C497.059 175.977 494.701 177.183 491.965 178.047C489.265 178.875 486.295 179.289 483.055 179.289C479.527 179.289 476.305 178.785 473.389 177.777C470.509 176.769 468.043 175.347 465.991 173.511C463.939 171.639 462.337 169.407 461.185 166.815C460.069 164.223 459.511 161.343 459.511 158.175C459.511 155.007 460.069 152.127 461.185 149.535C462.337 146.943 463.939 144.729 465.991 142.893C468.043 141.021 470.509 139.581 473.389 138.573C476.305 137.565 479.527 137.061 483.055 137.061C486.295 137.061 489.265 137.493 491.965 138.357C494.701 139.185 497.059 140.391 499.039 141.975C501.055 143.523 502.693 145.395 503.953 147.591C505.213 149.787 505.987 152.217 506.275 154.881H495.043C494.755 153.585 494.287 152.433 493.639 151.425C492.991 150.417 492.145 149.571 491.101 148.887C490.093 148.203 488.905 147.681 487.537 147.321C486.205 146.925 484.711 146.727 483.055 146.727C481.147 146.727 479.437 146.997 477.925 147.537C476.449 148.077 475.171 148.833 474.091 149.805C473.047 150.777 472.237 151.983 471.661 153.423C471.121 154.827 470.851 156.411 470.851 158.175C470.851 159.939 471.121 161.541 471.661 162.981C472.237 164.385 473.047 165.591 474.091 166.599C475.171 167.571 476.449 168.327 477.925 168.867C479.437 169.371 481.147 169.623 483.055 169.623C484.711 169.623 486.205 169.461 487.537 169.137C488.905 168.777 490.093 168.255 491.101 167.571C492.145 166.851 492.991 165.987 493.639 164.979C494.287 163.971 494.755 162.801 495.043 161.469ZM547.509 170.649H519.591V161.631H547.509V170.649ZM526.395 137.925H541.137L559.551 178.425H547.617L532.173 142.677H535.413L519.915 178.425H507.981L526.395 137.925Z" fill="black"/>
</svg>
